<svg width="112" height="56" viewBox="0 0 112 56" fill="none" xmlns="http://www.w3.org/2000/svg">
<path d="M85.0815 43.2618H89.8884V55.6635H85.0815V43.2618ZM93.133 49.4146C93.133 48.7576 92.9888 48.2329 92.7004 47.8403C92.412 47.4478 92.0195 47.2515 91.5227 47.2515C91.1863 47.2515 90.8938 47.3516 90.6455 47.5519C90.3971 47.7522 90.2089 48.0686 90.0807 48.5013C89.9525 48.9339 89.8884 49.4947 89.8884 50.1837L89.4558 47.4918V45.1365H90.273L89.4558 47.4918C89.4558 46.5945 89.632 45.8014 89.9845 45.1124C90.3371 44.4234 90.8338 43.8867 91.4747 43.5021C92.1156 43.1176 92.8366 42.9253 93.6378 42.9253C94.519 42.9253 95.2801 43.1536 95.921 43.6103C96.5619 44.0669 97.0587 44.7159 97.4112 45.5571C97.7637 46.3983 97.9399 47.3957 97.9399 48.5493V55.6635H93.133V49.4146ZM101.185 49.4146C101.185 48.7576 101.04 48.2329 100.752 47.8403C100.464 47.4478 100.071 47.2515 99.5743 47.2515C99.2378 47.2515 98.9454 47.3516 98.697 47.5519C98.4486 47.7522 98.2604 48.0686 98.1322 48.5013C98.004 48.9339 97.9399 49.4947 97.9399 50.1837L97.315 47.4918V45.7854H98.2283L97.315 47.4918C97.315 46.6106 97.4993 45.8214 97.8678 45.1244C98.2363 44.4274 98.7451 43.8867 99.394 43.5021C100.043 43.1176 100.776 42.9253 101.593 42.9253C102.49 42.9253 103.268 43.1536 103.924 43.6103C104.581 44.0669 105.09 44.7159 105.451 45.5571C105.811 46.3983 105.991 47.3957 105.991 48.5493V55.6635H101.185V49.4146Z" fill="#FAFAFA"/>
<path d="M76.4531 56C75.2034 56 74.0657 55.7156 73.0403 55.1468C72.0148 54.5779 71.2096 53.7928 70.6248 52.7914C70.04 51.79 69.7476 50.6804 69.7476 49.4626C69.7476 48.2289 70.04 47.1153 70.6248 46.1219C71.2096 45.1284 72.0148 44.3473 73.0403 43.7785C74.0657 43.2097 75.2034 42.9253 76.4531 42.9253C77.7189 42.9253 78.8606 43.2097 79.878 43.7785C80.8955 44.3473 81.6966 45.1284 82.2815 46.1219C82.8663 47.1153 83.1587 48.2289 83.1587 49.4626C83.1587 50.6804 82.8663 51.79 82.2815 52.7914C81.6966 53.7928 80.8955 54.5779 79.878 55.1468C78.8606 55.7156 77.7189 56 76.4531 56ZM76.4531 51.6738C76.8697 51.6738 77.2463 51.5777 77.5828 51.3854C77.9192 51.1931 78.1796 50.9287 78.3639 50.5922C78.5481 50.2558 78.6403 49.8792 78.6403 49.4626C78.6403 49.03 78.5481 48.6455 78.3639 48.309C78.1796 47.9725 77.9192 47.7121 77.5828 47.5279C77.2463 47.3436 76.8697 47.2515 76.4531 47.2515C76.0365 47.2515 75.664 47.3436 75.3355 47.5279C75.0071 47.7121 74.7467 47.9725 74.5544 48.309C74.3622 48.6455 74.266 49.03 74.266 49.4626C74.266 49.8792 74.3622 50.2558 74.5544 50.5922C74.7467 50.9287 75.0071 51.1931 75.3355 51.3854C75.664 51.5777 76.0365 51.6738 76.4531 51.6738Z" fill="#FAFAFA"/>
<path d="M67.825 38.2627V55.6636H63.0181V53.164L63.5709 49.4627L63.0181 46.17V38.2627H67.825ZM62.6335 54.2215L63.8593 49.4627C63.8593 51.0009 63.6951 52.2507 63.3666 53.2121C63.0381 54.1734 62.5574 54.8784 61.9245 55.3271C61.2916 55.7757 60.5185 56 59.6052 56C58.4996 56 57.5182 55.7156 56.661 55.1468C55.8038 54.578 55.1348 53.7969 54.6541 52.8035C54.1734 51.8101 53.9331 50.6965 53.9331 49.4627C53.9331 48.2289 54.1734 47.1153 54.6541 46.1219C55.1348 45.1285 55.8038 44.3474 56.661 43.7786C57.5182 43.2098 58.4996 42.9254 59.6052 42.9254C60.5185 42.9254 61.2916 43.1457 61.9245 43.5863C62.5574 44.0269 63.0381 44.7319 63.3666 45.7013C63.6951 46.6707 63.8593 47.9245 63.8593 49.4627L62.6335 44.7039H64.1477V54.2215H62.6335ZM59.7975 51.3854C60.134 51.5777 60.5105 51.6739 60.9271 51.6739C61.3437 51.6739 61.7162 51.5777 62.0447 51.3854C62.3732 51.1932 62.6335 50.9288 62.8258 50.5923C63.0181 50.2558 63.1142 49.8793 63.1142 49.4627C63.1142 49.0301 63.0181 48.6455 62.8258 48.3091C62.6335 47.9726 62.3732 47.7122 62.0447 47.5279C61.7162 47.3437 61.3437 47.2515 60.9271 47.2515C60.5105 47.2515 60.134 47.3437 59.7975 47.5279C59.461 47.7122 59.2006 47.9726 59.0164 48.3091C58.8321 48.6455 58.74 49.0301 58.74 49.4627C58.74 49.8793 58.8321 50.2558 59.0164 50.5923C59.2006 50.9288 59.461 51.1932 59.7975 51.3854Z" fill="#FAFAFA"/>
<path d="M46.266 56C44.856 56 43.6262 55.7276 42.5767 55.1828C41.5272 54.638 40.714 53.8729 40.1372 52.8875C39.5604 51.9021 39.272 50.7605 39.272 49.4626C39.272 48.1808 39.5644 47.0432 40.1492 46.0498C40.7341 45.0563 41.5432 44.2872 42.5767 43.7425C43.6102 43.1977 44.7758 42.9253 46.0737 42.9253C47.3715 42.9253 48.5212 43.1977 49.5226 43.7425C50.5241 44.2872 51.3012 45.0523 51.854 46.0377C52.4067 47.0231 52.6831 48.1648 52.6831 49.4626C52.6831 49.8472 52.6511 50.2478 52.587 50.6644H41.6514V48.0686H48.1406L47.9724 48.1888C47.9724 47.8844 47.8963 47.612 47.7441 47.3716C47.5919 47.1313 47.3756 46.939 47.0952 46.7948C46.8148 46.6506 46.4743 46.5785 46.0737 46.5785C45.6731 46.5785 45.3166 46.6546 45.0042 46.8068C44.6917 46.9591 44.4434 47.1714 44.2591 47.4437C44.0748 47.7161 43.9827 48.0366 43.9827 48.4051V50.3279C43.9827 50.7124 44.0828 51.0609 44.2831 51.3734C44.4834 51.6858 44.7558 51.9262 45.1003 52.0944C45.4448 52.2626 45.8333 52.3468 46.266 52.3468C46.6986 52.3468 47.0631 52.2626 47.3595 52.0944C47.656 51.9262 47.8763 51.6898 48.0205 51.3854L52.2265 52.8034C51.6977 53.8129 50.9246 54.598 49.9072 55.1588C48.8897 55.7196 47.676 56 46.266 56Z" fill="#FAFAFA"/>
<path d="M31.6053 56C30.1953 56 28.9656 55.7276 27.9161 55.1828C26.8666 54.638 26.0534 53.8729 25.4766 52.8875C24.8997 51.9021 24.6113 50.7605 24.6113 49.4626C24.6113 48.1808 24.9037 47.0432 25.4886 46.0498C26.0734 45.0563 26.8826 44.2872 27.9161 43.7425C28.9495 43.1977 30.1152 42.9253 31.413 42.9253C32.7109 42.9253 33.8605 43.1977 34.862 43.7425C35.8634 44.2872 36.6405 45.0523 37.1933 46.0377C37.7461 47.0231 38.0225 48.1648 38.0225 49.4626C38.0225 49.8472 37.9904 50.2478 37.9264 50.6644H26.9907V48.0686H33.48L33.3118 48.1888C33.3118 47.8844 33.2357 47.612 33.0834 47.3716C32.9312 47.1313 32.7149 46.939 32.4345 46.7948C32.1541 46.6506 31.8136 46.5785 31.413 46.5785C31.0125 46.5785 30.656 46.6546 30.3435 46.8068C30.0311 46.9591 29.7827 47.1714 29.5985 47.4437C29.4142 47.7161 29.3221 48.0366 29.3221 48.4051V50.3279C29.3221 50.7124 29.4222 51.0609 29.6225 51.3734C29.8228 51.6858 30.0952 51.9262 30.4397 52.0944C30.7841 52.2626 31.1727 52.3468 31.6053 52.3468C32.0379 52.3468 32.4025 52.2626 32.6989 52.0944C32.9953 51.9262 33.2156 51.6898 33.3598 51.3854L37.5658 52.8034C37.0371 53.8129 36.264 54.598 35.2465 55.1588C34.2291 55.7196 33.0153 56 31.6053 56Z" fill="#FAFAFA"/>
<path d="M13.8438 43.2618H18.6506V55.6635H13.8438V43.2618ZM18.0498 48.0446V44.9442H19.0352L18.0498 48.0446C18.0498 47.0352 18.214 46.1419 18.5425 45.3648C18.8709 44.5877 19.3356 43.9868 19.9365 43.5622C20.5373 43.1376 21.2223 42.9253 21.9914 42.9253C22.3279 42.9253 22.6884 42.9734 23.0729 43.0695V47.5639C22.5442 47.4197 22.0154 47.3476 21.4867 47.3476C20.8618 47.3476 20.337 47.4678 19.9124 47.7081C19.4878 47.9485 19.1714 48.317 18.9631 48.8137C18.7548 49.3104 18.6506 49.9273 18.6506 50.6644L18.0498 48.0446Z" fill="#FAFAFA"/>
<path d="M0 38.2627H4.99914V55.6636H0V38.2627ZM4.95108 38.2627H11.5846V42.9734H4.95108V38.2627ZM4.95108 45.2327H10.8155V49.5588H4.95108V45.2327Z" fill="#FAFAFA"/>
<path d="M106.987 1.05225H111.794V18.4531H106.987V1.05225Z" fill="#FAFAFA"/>
<path d="M100.917 12.8513C100.917 14.3895 100.753 15.6393 100.424 16.6007C100.096 17.562 99.6191 18.267 98.9942 18.7157C98.3693 19.1643 97.5922 19.3886 96.6628 19.3886C95.5733 19.3886 94.5959 19.1042 93.7306 18.5354C92.8654 17.9666 92.1924 17.1855 91.7118 16.1921C91.2311 15.1987 90.9907 14.0851 90.9907 12.8513C90.9907 11.6175 91.2311 10.504 91.7118 9.51053C92.1924 8.51711 92.8654 7.736 93.7306 7.16718C94.5959 6.59837 95.5733 6.31396 96.6628 6.31396C97.5922 6.31396 98.3693 6.53428 98.9942 6.97491C99.6191 7.41554 100.096 8.12055 100.424 9.08993C100.753 10.0593 100.917 11.3131 100.917 12.8513L99.6912 8.09251H101.205V17.6101H99.6912L100.917 12.8513ZM97.9847 15.0625C98.4013 15.0625 98.7779 14.9663 99.1143 14.7741C99.4508 14.5818 99.7112 14.3174 99.8954 13.9809C100.08 13.6444 100.172 13.2679 100.172 12.8513C100.172 12.4187 100.08 12.0341 99.8954 11.6977C99.7112 11.3612 99.4508 11.1008 99.1143 10.9165C98.7779 10.7323 98.4013 10.6401 97.9847 10.6401C97.5681 10.6401 97.1956 10.7323 96.8671 10.9165C96.5387 11.1008 96.2783 11.3612 96.086 11.6977C95.8937 12.0341 95.7976 12.4187 95.7976 12.8513C95.7976 13.2679 95.8937 13.6444 96.086 13.9809C96.2783 14.3174 96.5387 14.5818 96.8671 14.7741C97.1956 14.9663 97.5681 15.0625 97.9847 15.0625ZM100.076 19.0522V16.5526L100.628 12.8513L100.076 9.5586V6.65045H104.883V19.0522H100.076Z" fill="#FAFAFA"/>
<path d="M83.767 6.34507H88.5739V18.7468H83.767V6.34507ZM86.1705 5.28756C85.6738 5.28756 85.2171 5.17139 84.8005 4.93906C84.3839 4.70673 84.0554 4.39027 83.8151 3.9897C83.5748 3.58913 83.4546 3.14049 83.4546 2.64378C83.4546 2.14707 83.5748 1.69442 83.8151 1.28584C84.0554 0.877254 84.3839 0.560801 84.8005 0.336481C85.2171 0.11216 85.6738 0 86.1705 0C86.6832 0 87.1479 0.11216 87.5645 0.336481C87.9811 0.560801 88.3055 0.877254 88.5379 1.28584C88.7702 1.69442 88.8864 2.14707 88.8864 2.64378C88.8864 3.14049 88.7702 3.58913 88.5379 3.9897C88.3055 4.39027 87.9811 4.70673 87.5645 4.93906C87.1479 5.17139 86.6832 5.28756 86.1705 5.28756Z" fill="#FAFAFA"/>
<path d="M74.9809 19.3886C73.7311 19.3886 72.5855 19.1002 71.544 18.5234C70.5025 17.9466 69.6813 17.1615 69.0805 16.168C68.4796 15.1746 68.1792 14.069 68.1792 12.8513C68.1792 11.6336 68.4796 10.524 69.0805 9.52255C69.6813 8.52112 70.5025 7.736 71.544 7.16718C72.5855 6.59837 73.7311 6.31396 74.9809 6.31396C75.9743 6.31396 76.8957 6.48621 77.7449 6.8307C78.5941 7.1752 79.3311 7.66389 79.956 8.2968C80.5809 8.9297 81.0456 9.66275 81.35 10.4959L77.0719 11.938C76.9117 11.5374 76.6473 11.221 76.2788 10.9886C75.9102 10.7563 75.4776 10.6401 74.9809 10.6401C74.5483 10.6401 74.1597 10.7323 73.8153 10.9165C73.4708 11.1008 73.1984 11.3612 72.9981 11.6977C72.7978 12.0341 72.6977 12.4187 72.6977 12.8513C72.6977 13.2679 72.7978 13.6444 72.9981 13.9809C73.1984 14.3174 73.4708 14.5818 73.8153 14.7741C74.1597 14.9663 74.5483 15.0625 74.9809 15.0625C75.4776 15.0625 75.9102 14.9463 76.2788 14.714C76.6473 14.4816 76.9117 14.1652 77.0719 13.7646L81.35 15.2067C81.0456 16.0238 80.5809 16.7489 79.956 17.3818C79.3311 18.0147 78.5941 18.5074 77.7449 18.8599C76.8957 19.2124 75.9743 19.3886 74.9809 19.3886Z" fill="#FAFAFA"/>
<path d="M46.747 12.8513C46.747 14.3895 46.5828 15.6393 46.2543 16.6007C45.9258 17.562 45.4491 18.267 44.8242 18.7157C44.1993 19.1643 43.4222 19.3886 42.4929 19.3886C41.4033 19.3886 40.426 19.1042 39.5607 18.5354C38.6955 17.9666 38.0225 17.1855 37.5418 16.1921C37.0611 15.1987 36.8208 14.0851 36.8208 12.8513C36.8208 11.6175 37.0611 10.504 37.5418 9.51053C38.0225 8.51711 38.6955 7.736 39.5607 7.16718C40.426 6.59837 41.4033 6.31396 42.4929 6.31396C43.4222 6.31396 44.1993 6.53428 44.8242 6.97491C45.4491 7.41554 45.9258 8.12055 46.2543 9.08993C46.5828 10.0593 46.747 11.3131 46.747 12.8513L45.5212 8.09251H47.0354V17.6101H45.5212L46.747 12.8513ZM43.8148 15.0625C44.2314 15.0625 44.6079 14.9663 44.9444 14.7741C45.2809 14.5818 45.5413 14.3174 45.7255 13.9809C45.9098 13.6444 46.0019 13.2679 46.0019 12.8513C46.0019 12.4187 45.9098 12.0341 45.7255 11.6977C45.5413 11.3612 45.2809 11.1008 44.9444 10.9165C44.6079 10.7323 44.2314 10.6401 43.8148 10.6401C43.3982 10.6401 43.0257 10.7323 42.6972 10.9165C42.3687 11.1008 42.1084 11.3612 41.9161 11.6977C41.7238 12.0341 41.6277 12.4187 41.6277 12.8513C41.6277 13.2679 41.7238 13.6444 41.9161 13.9809C42.1084 14.3174 42.3687 14.5818 42.6972 14.7741C43.0257 14.9663 43.3982 15.0625 43.8148 15.0625ZM45.9058 19.0522V16.5526L46.4586 12.8513L45.9058 9.5586V6.65045H50.7127V19.0522H45.9058Z" fill="#FAFAFA"/>
<path d="M21.4385 6.34527H26.2453V18.747H21.4385V6.34527ZM30.0908 12.4981C30.0908 11.8251 29.9186 11.2963 29.5741 10.9118C29.2296 10.5272 28.7609 10.335 28.1681 10.335C27.7675 10.335 27.423 10.4351 27.1346 10.6354C26.8462 10.8357 26.6259 11.1521 26.4737 11.5848C26.3215 12.0174 26.2453 12.5782 26.2453 13.2672L25.7647 10.5753V8.21995H26.6299L25.7647 10.5753C25.7647 9.67803 25.9569 8.8849 26.3415 8.19591C26.726 7.50693 27.2588 6.97016 27.9398 6.58561C28.6207 6.20106 29.3938 6.00879 30.2591 6.00879C31.2044 6.00879 32.0256 6.23712 32.7226 6.69377C33.4196 7.15042 33.9564 7.79935 34.3329 8.64055C34.7094 9.48175 34.8977 10.4792 34.8977 11.6328V18.747H30.0908V12.4981Z" fill="#FAFAFA"/>
<path d="M52.6152 6.65045H57.4221V19.0522H52.6152V6.65045ZM61.2676 12.8032C61.2676 12.1303 61.0954 11.6015 60.7509 11.217C60.4064 10.8324 59.9377 10.6401 59.3449 10.6401C58.9443 10.6401 58.5998 10.7403 58.3114 10.9406C58.023 11.1409 57.8026 11.4573 57.6504 11.8899C57.4982 12.3226 57.4221 12.8834 57.4221 13.5723L56.9414 10.8805V8.52512H57.8067L56.9414 10.8805C56.9414 9.98321 57.1337 9.19008 57.5182 8.50109C57.9028 7.81211 58.4356 7.27534 59.1165 6.89079C59.7975 6.50624 60.5706 6.31396 61.4358 6.31396C62.3812 6.31396 63.2024 6.54229 63.8994 6.99894C64.5964 7.4556 65.1331 8.10452 65.5097 8.94573C65.8862 9.78693 66.0745 10.7844 66.0745 11.938V19.0522H61.2676V12.8032Z" fill="#FAFAFA"/>
<path d="M14.0361 6.34507H18.8429V18.7468H14.0361V6.34507ZM16.4395 5.28756C15.9428 5.28756 15.4862 5.17139 15.0696 4.93906C14.653 4.70673 14.3245 4.39027 14.0841 3.9897C13.8438 3.58913 13.7236 3.14049 13.7236 2.64378C13.7236 2.14707 13.8438 1.69442 14.0841 1.28584C14.3245 0.877254 14.653 0.560801 15.0696 0.336481C15.4862 0.11216 15.9428 0 16.4395 0C16.9522 0 17.4169 0.11216 17.8335 0.336481C18.2501 0.560801 18.5746 0.877254 18.8069 1.28584C19.0392 1.69442 19.1554 2.14707 19.1554 2.64378C19.1554 3.14049 19.0392 3.58913 18.8069 3.9897C18.5746 4.39027 18.2501 4.70673 17.8335 4.93906C17.4169 5.17139 16.9522 5.28756 16.4395 5.28756Z" fill="#FAFAFA"/>
<path d="M0 1.3457H4.99914V18.7466H0V1.3457ZM4.95108 1.3457H11.5846V6.05644H4.95108V1.3457ZM4.95108 8.31566H10.8155V12.6418H4.95108V8.31566Z" fill="#FAFAFA"/>
</svg>
