<svg width="400" height="400" viewBox="0 0 400 400" fill="none" xmlns="http://www.w3.org/2000/svg">
<path d="M0 24C0 10.7452 10.7452 0 24 0H376C389.255 0 400 10.7452 400 24V376C400 389.255 389.255 400 376 400H24C10.7452 400 0 389.255 0 376V24Z" fill="#FAFAFA"/>
<path d="M76.7769 295.75V201.663C76.7769 191.376 88.8404 184.616 98.5507 188.011C123.203 196.63 160.29 200.124 197.949 177.331C245.168 148.751 294.326 161.5 318.149 173.859C322.025 175.869 324.223 179.977 324.223 184.344V276.925C324.223 287.337 311.83 294.152 302.032 290.631C276.773 281.553 238.315 277.883 197.949 301.904C147.168 332.124 102.259 318.518 81.7825 305.453C78.5047 303.362 76.7769 299.639 76.7769 295.75Z" fill="url(#paint0_linear_759_4337)"/>
<path d="M76.7769 254.934V160.847C76.7769 150.56 88.8404 143.8 98.5507 147.195C123.203 155.813 160.29 159.308 197.949 136.514C245.168 107.934 294.326 120.684 318.149 133.042C322.025 135.053 324.223 139.16 324.223 143.527V236.109C324.223 246.52 311.83 253.336 302.032 249.815C276.773 240.737 238.315 237.067 197.949 261.088C147.168 291.308 102.259 277.701 81.7825 264.637C78.5047 262.545 76.7769 258.822 76.7769 254.934Z" fill="url(#paint1_linear_759_4337)" fill-opacity="0.5"/>
<path d="M76.7769 215.819V121.731C76.7769 111.445 88.8404 104.685 98.5507 108.08C123.203 116.698 160.29 120.193 197.949 97.3991C245.168 68.8192 294.326 81.5686 318.149 93.9269C322.025 95.9379 324.223 100.045 324.223 104.412V196.994C324.223 207.405 311.83 214.221 302.032 210.7C276.773 201.622 238.315 197.951 197.949 221.973C147.168 252.193 102.259 238.586 81.7825 225.521C78.5047 223.43 76.7769 219.707 76.7769 215.819Z" fill="url(#paint2_linear_759_4337)" fill-opacity="0.25"/>
<defs>
<linearGradient id="paint0_linear_759_4337" x1="200.5" y1="160.053" x2="200.5" y2="320.122" gradientUnits="userSpaceOnUse">
<stop stop-color="#188AE6"/>
<stop offset="1" stop-color="#C9E7FF" stop-opacity="0.25"/>
</linearGradient>
<linearGradient id="paint1_linear_759_4337" x1="200.5" y1="119.236" x2="200.5" y2="279.305" gradientUnits="userSpaceOnUse">
<stop stop-color="#188AE6" stop-opacity="0.5"/>
<stop offset="1" stop-color="#188AE6" stop-opacity="0.15"/>
</linearGradient>
<linearGradient id="paint2_linear_759_4337" x1="200.5" y1="80.1211" x2="200.5" y2="240.19" gradientUnits="userSpaceOnUse">
<stop stop-color="#188AE6" stop-opacity="0.25"/>
<stop offset="1" stop-color="#188AE6" stop-opacity="0"/>
</linearGradient>
</defs>
</svg>
